<?xml version="1.0" encoding="UTF-8"?>
<svg xmlns="http://www.w3.org/2000/svg" xmlns:xlink="http://www.w3.org/1999/xlink" width="1289.238281" height="2016.464844" viewBox="0 0 1289.238281 2016.464844">
<path fill-rule="nonzero" fill="rgb(100%, 100%, 100%)" fill-opacity="1" d="M 0 0 L 0 2016.464844 L 643.808594 2016.464844 L 643.808594 2015.175781 L 570.722656 1942.871094 L 517.109375 1882.402344 L 432.246094 1795.996094 L 353.007812 1712.519531 L 304.707031 1656.933594 L 254.628906 1593.671875 L 207.207031 1532.207031 L 159.003906 1460.410156 L 101.367188 1370.371094 L 79.257812 1327.285156 L 64.003906 1294.882812 L 49.609375 1255.820312 L 34.746094 1205.878906 L 18.398438 1148.4375 L 8.105469 1100.019531 L 2.441406 1067.011719 L 1.816406 977.089844 L 6.816406 926.503906 L 22.1875 853.886719 L 38.828125 790.917969 L 73.417969 702.558594 L 109.648438 629.882812 L 136.464844 581.210938 L 221.25 459.101562 L 301.191406 357.65625 L 397.617188 251.679688 L 485.175781 162.753906 L 558.378906 90.410156 L 644.394531 0 Z M 645.527344 0 L 731.542969 90.390625 L 804.746094 162.734375 L 892.304688 251.660156 L 988.730469 357.636719 L 1068.652344 459.082031 L 1153.457031 581.171875 L 1180.273438 629.863281 L 1216.484375 702.539062 L 1251.09375 790.878906 L 1267.734375 853.867188 L 1283.085938 926.484375 L 1288.105469 977.070312 L 1287.480469 1066.992188 L 1281.796875 1099.980469 L 1271.523438 1148.417969 L 1255.15625 1205.839844 L 1240.3125 1255.78125 L 1225.898438 1294.84375 L 1210.664062 1327.265625 L 1188.554688 1370.351562 L 1130.917969 1460.390625 L 1082.714844 1532.1875 L 1035.273438 1593.652344 L 985.214844 1656.914062 L 936.914062 1712.5 L 857.65625 1795.957031 L 772.8125 1882.363281 L 719.199219 1942.851562 L 646.113281 2015.175781 L 646.113281 2016.464844 L 1289.238281 2016.464844 L 1289.238281 0 Z M 644.960938 2016.308594 L 644.804688 2016.464844 L 645.097656 2016.464844 Z M 644.960938 2016.308594 "/>
</svg>
